<?xml version="1.0" standalone="no"?>
<!DOCTYPE svg PUBLIC "-//W3C//DTD SVG 20010904//EN"
 "http://www.w3.org/TR/2001/REC-SVG-20010904/DTD/svg10.dtd">
<svg version="1.0" xmlns="http://www.w3.org/2000/svg"
 width="950.000000pt" height="950.000000pt" viewBox="0 0 950.000000 950.000000"
 preserveAspectRatio="xMidYMid meet">
<metadata>
Created by potrace 1.11, written by Peter Selinger 2001-2013
</metadata>
<g transform="translate(0.000000,950.000000) scale(0.100000,-0.100000)"
fill="#000000" stroke="none">
<path d="M13 8134 c-2 -5 15 -45 37 -87 23 -42 38 -77 33 -77 -4 0 0 -5 10
-11 9 -5 17 -17 17 -25 0 -9 9 -29 21 -45 11 -16 17 -29 14 -29 -3 0 3 -13 15
-30 12 -16 18 -30 13 -30 -4 0 -3 -4 2 -8 6 -4 62 -108 124 -232 99 -195 167
-328 322 -630 18 -36 33 -67 34 -70 0 -3 4 -11 9 -18 8 -13 44 -84 401 -787
98 -192 186 -365 197 -382 11 -18 16 -33 11 -33 -4 0 -3 -4 2 -8 15 -11 47
-72 38 -72 -4 0 -3 -4 3 -8 6 -4 38 -61 71 -127 138 -275 296 -581 305 -592 6
-7 7 -13 3 -13 -5 0 -2 -8 7 -17 13 -17 40 -72 40 -83 0 -3 5 -12 12 -20 7 -8
61 -112 121 -230 201 -401 327 -645 337 -658 6 -6 7 -12 3 -12 -4 0 -3 -6 3
-12 6 -7 67 -125 137 -263 194 -381 366 -718 378 -740 6 -11 12 -26 13 -33 1
-7 7 -19 13 -26 18 -22 110 -206 103 -206 -4 0 -2 -4 4 -8 6 -4 40 -65 76
-137 36 -71 115 -227 175 -345 157 -306 183 -359 182 -366 0 -4 3 -10 8 -13 4
-3 42 -72 83 -154 41 -81 78 -146 83 -144 5 1 43 70 86 152 180 347 224 430
235 437 6 4 8 8 4 8 -7 0 17 48 152 305 44 84 155 296 258 495 24 47 65 126
91 175 26 50 83 159 127 243 43 83 97 187 120 230 22 42 75 145 118 227 43 83
81 153 84 157 8 8 89 -139 84 -153 -1 -5 2 -9 7 -9 5 0 28 -39 51 -87 24 -47
58 -113 76 -145 18 -32 30 -58 27 -58 -3 0 0 -6 6 -14 11 -13 39 -65 83 -151
11 -22 24 -47 29 -55 4 -8 32 -62 62 -120 97 -188 149 -285 159 -297 6 -7 7
-13 3 -13 -4 0 -3 -6 2 -12 11 -14 85 -153 172 -323 28 -55 56 -106 61 -112 6
-7 8 -13 4 -13 -3 0 -2 -6 4 -12 6 -7 38 -67 72 -133 128 -248 172 -330 182
-342 6 -7 7 -13 4 -13 -4 0 0 -7 8 -16 9 -8 16 -24 16 -34 0 -10 4 -20 8 -22
5 -1 29 -43 54 -93 79 -154 111 -215 114 -212 6 5 320 620 541 1057 48 96 93
178 98 182 6 4 7 8 4 8 -4 0 15 41 42 92 27 50 51 100 55 110 3 10 10 18 15
18 5 0 8 4 7 8 -4 11 84 184 97 194 6 4 6 8 2 8 -5 0 1 14 13 30 12 17 18 30
14 30 -3 0 -2 6 3 13 6 6 80 149 166 317 85 168 210 413 277 545 68 132 161
317 208 410 47 94 93 181 103 195 9 14 16 27 16 30 -1 3 25 57 58 120 32 63
107 208 165 322 262 516 385 758 485 953 59 116 180 354 270 530 89 176 207
406 260 510 54 105 176 345 273 535 96 190 201 396 233 459 33 63 59 117 59
120 0 3 -421 6 -935 5 l-934 -1 -20 -24 c-11 -13 -20 -27 -21 -31 0 -11 -133
-222 -145 -230 -5 -4 -6 -8 -2 -8 5 0 -5 -19 -21 -42 -41 -59 -175 -278 -184
-300 -4 -10 -13 -18 -19 -18 -7 0 -10 -3 -6 -6 3 -3 -18 -42 -47 -87 -29 -45
-66 -107 -83 -137 l-32 -55 439 0 c241 0 448 -2 460 -5 20 -5 20 -6 -5 -42
-14 -21 -23 -38 -20 -38 3 0 -6 -18 -20 -40 -14 -22 -22 -40 -19 -40 4 0 2 -6
-4 -12 -10 -13 -164 -310 -255 -493 -28 -55 -55 -103 -61 -107 -6 -4 -8 -8 -4
-8 10 0 -132 -272 -146 -282 -6 -4 -8 -8 -3 -8 4 0 -47 -107 -114 -237 -67
-131 -149 -292 -182 -358 -34 -66 -66 -123 -71 -127 -6 -4 -8 -8 -4 -8 4 0 -1
-15 -12 -34 -27 -49 -64 -120 -65 -126 -1 -3 -14 -30 -30 -60 -16 -30 -49 -95
-74 -145 -25 -49 -49 -91 -53 -93 -5 -2 -8 -11 -8 -21 0 -9 -4 -21 -9 -26 -5
-6 -73 -136 -151 -290 -78 -154 -196 -383 -260 -510 -65 -126 -169 -330 -231
-452 l-113 -222 -34 62 c-19 34 -50 88 -68 120 -19 32 -34 64 -34 72 0 7 -4
15 -8 17 -7 3 -26 35 -105 178 -76 140 -91 167 -102 185 -7 11 -28 49 -47 85
-38 71 -100 185 -131 240 -39 69 -164 297 -207 375 -24 44 -47 87 -52 95 -6
11 60 153 232 494 132 263 244 484 248 490 3 6 7 13 7 16 1 15 249 496 259
502 6 4 8 8 3 8 -4 0 193 399 437 888 244 488 440 889 436 892 -6 4 -4176 5
-4239 1 -9 -1 -10 -5 -3 -13 10 -13 230 -449 231 -458 0 -3 21 -43 46 -89 25
-47 45 -90 45 -97 0 -7 3 -14 8 -16 8 -4 154 -294 152 -304 -1 -4 2 -10 7 -13
5 -3 30 -51 56 -106 27 -55 52 -107 57 -115 30 -52 200 -398 200 -407 0 -6 3
-13 8 -15 9 -4 75 -134 72 -144 -1 -4 2 -10 7 -13 11 -7 193 -373 192 -385 0
-5 4 -12 9 -15 11 -7 75 -137 72 -147 -1 -4 2 -10 7 -13 11 -8 316 -617 313
-627 -1 -4 3 -10 8 -13 5 -3 40 -69 79 -147 l69 -140 -69 -125 c-38 -68 -84
-153 -104 -189 -19 -36 -45 -83 -58 -105 -41 -74 -88 -160 -114 -210 -14 -27
-29 -51 -33 -53 -5 -2 -8 -7 -8 -12 0 -5 -29 -61 -65 -125 -36 -64 -65 -120
-65 -124 0 -5 -7 -14 -15 -21 -8 -7 -15 -21 -15 -30 0 -10 -4 -20 -8 -22 -5
-1 -28 -39 -52 -83 -67 -125 -140 -259 -151 -275 -5 -8 -14 -25 -21 -37 -15
-30 -21 -29 -39 10 -8 17 -70 140 -138 272 -68 132 -197 384 -287 560 -89 176
-199 390 -243 475 -45 85 -84 162 -87 170 -3 8 -10 24 -17 35 -10 20 -121 237
-296 579 -50 98 -96 185 -102 192 -6 8 -8 14 -4 14 4 0 0 11 -8 23 -16 25
-182 347 -368 717 -60 118 -112 220 -116 225 -9 12 -243 472 -243 477 0 2 205
3 455 3 460 0 480 2 440 35 -8 6 -17 21 -21 32 -3 11 -19 39 -35 63 -16 24
-29 47 -29 53 0 6 -4 12 -8 14 -7 3 -27 33 -99 153 -7 11 -15 27 -19 35 -4 8
-10 17 -14 20 -3 3 -26 38 -50 78 -25 40 -53 85 -62 100 -10 15 -21 34 -25 42
-3 8 -14 27 -24 41 -10 14 -15 30 -11 35 4 5 3 6 -2 2 -7 -6 -80 103 -123 183
-28 55 25 52 -970 53 -645 1 -927 -2 -930 -10z m5327 -925 c0 -4 -13 -36 -29
-71 -50 -110 -82 -181 -111 -243 -15 -33 -38 -82 -50 -110 -52 -116 -151 -330
-226 -490 -20 -44 -38 -84 -40 -90 -1 -5 -25 -59 -53 -120 -28 -60 -57 -123
-65 -140 l-14 -30 -10 25 c-6 14 -28 63 -50 110 -40 85 -74 161 -77 170 0 3
-12 28 -25 55 -69 149 -143 311 -170 370 -12 28 -32 73 -45 100 -47 99 -105
226 -105 230 0 3 -25 57 -55 120 -30 64 -55 117 -55 119 0 1 266 3 590 3 325
0 590 -4 590 -8z"/>
</g>
</svg>
